<svg width="16" height="16" viewBox="0 0 16 16" fill="none" xmlns="http://www.w3.org/2000/svg">
<g clip-path="url(#clip0_1008_261)">
<path fill-rule="evenodd" clip-rule="evenodd" d="M8 16C12.4183 16 16 12.4183 16 8C16 3.58172 12.4183 0 8 0C3.58172 0 0 3.58172 0 8C0 12.4183 3.58172 16 8 16ZM6.55403 10.9551C6.62336 10.9848 6.69769 11.0001 6.77274 11C6.84778 11.0001 6.92211 10.9848 6.99144 10.9551C7.06077 10.9254 7.12374 10.8817 7.17674 10.8268L11.8396 6.00203C11.9437 5.89051 12.0013 5.74116 12 5.58613C11.9987 5.4311 11.9386 5.2828 11.8326 5.17318C11.7267 5.06355 11.5834 5.00137 11.4335 5.00002C11.2837 4.99868 11.1394 5.05827 11.0316 5.16598L6.77274 9.57268L4.98245 7.72025C4.92974 7.66377 4.86668 7.61873 4.79697 7.58774C4.72725 7.55675 4.65227 7.54044 4.57639 7.53976C4.50052 7.53908 4.42527 7.55404 4.35505 7.58377C4.28482 7.6135 4.22102 7.6574 4.16737 7.71292C4.11371 7.76843 4.07128 7.83445 4.04255 7.90711C4.01382 7.97978 3.99936 8.05764 4.00002 8.13614C4.00068 8.21465 4.01644 8.29224 4.04639 8.36437C4.07634 8.43651 4.11987 8.50175 4.17445 8.5563L6.36874 10.8268C6.42173 10.8817 6.4847 10.9254 6.55403 10.9551Z" fill="white"/>
</g>
<defs>
<clipPath id="clip0_1008_261">
<rect width="16" height="16" fill="white"/>
</clipPath>
</defs>
</svg>
